<svg width="37" height="37" viewBox="0 0 37 37" fill="none" xmlns="http://www.w3.org/2000/svg">
<path d="M18.6221 36.8594C16.105 36.8594 13.7477 36.3815 11.5501 35.4257C9.35248 34.4699 7.43949 33.1778 5.8111 31.5494C4.18271 29.921 2.8906 28.008 1.93477 25.8104C0.97895 23.6128 0.500366 21.2548 0.499023 18.7364C0.499023 16.2193 0.977607 13.8619 1.93477 11.6643C2.89194 9.46674 4.18338 7.55375 5.80909 5.92536C7.43748 4.29696 9.35047 3.00486 11.5481 2.04903C13.7457 1.09321 16.1037 0.614624 18.6221 0.613281C21.3741 0.613281 23.9838 1.2006 26.4513 2.37525C28.9187 3.54989 31.0075 5.21117 32.7178 7.35909V2.62696H36.7452V14.709H24.6631V10.6817H30.2007C28.8247 8.80223 27.1299 7.32553 25.1162 6.25157C23.1025 5.17761 20.9378 4.64063 18.6221 4.64063C14.6954 4.64063 11.3648 6.00859 8.63024 8.7445C5.89567 11.4804 4.52772 14.811 4.52637 18.7364C4.52637 22.663 5.89433 25.9943 8.63024 28.7302C11.3662 31.4661 14.6968 32.8334 18.6221 32.8321C22.146 32.8321 25.2256 31.691 27.8608 29.4088C30.4961 27.1267 32.0479 24.2404 32.5165 20.75H36.6445C36.1411 25.3479 34.1697 29.1826 30.7303 32.2542C27.291 35.3257 23.2549 36.8608 18.6221 36.8594ZM24.2604 27.1938L16.6084 19.5418V8.66798H20.6358V17.9309L27.0795 24.3746L24.2604 27.1938Z" fill="#1D2F5D"/>
</svg>
