<svg width="37" height="30" viewBox="0 0 37 30" fill="none" xmlns="http://www.w3.org/2000/svg">
<path d="M33.957 0.630859H8.86352C8.12405 0.630859 7.41487 0.910828 6.89199 1.40918C6.36911 1.90753 6.07536 2.58343 6.07536 3.2882V5.94554H3.28719C2.54772 5.94554 1.83854 6.22551 1.31566 6.72386C0.792776 7.22221 0.499023 7.89812 0.499023 8.60289V27.2043C0.499023 27.9091 0.792776 28.585 1.31566 29.0833C1.83854 29.5817 2.54772 29.8616 3.28719 29.8616H28.3807C29.1201 29.8616 29.8293 29.5817 30.3522 29.0833C30.8751 28.585 31.1688 27.9091 31.1688 27.2043V24.5469H33.957C34.6965 24.5469 35.4057 24.267 35.9285 23.7686C36.4514 23.2703 36.7452 22.5944 36.7452 21.8896V3.2882C36.7452 2.58343 36.4514 1.90753 35.9285 1.40918C35.4057 0.910828 34.6965 0.630859 33.957 0.630859ZM8.86352 3.2882H33.957V13.71L32.2022 12.0392C31.9433 11.7923 31.6359 11.5965 31.2976 11.463C30.9593 11.3294 30.5967 11.2606 30.2305 11.2606C29.8643 11.2606 29.5016 11.3294 29.1633 11.463C28.825 11.5965 28.5176 11.7923 28.2587 12.0392L24.7735 15.3608L17.106 8.05315C16.5832 7.55518 15.8743 7.27545 15.1352 7.27545C14.396 7.27545 13.6871 7.55518 13.1643 8.05315L8.86352 12.1521V3.2882ZM28.3807 27.2043H3.28719V8.60289H6.07536V21.8896C6.07536 22.5944 6.36911 23.2703 6.89199 23.7686C7.41487 24.267 8.12405 24.5469 8.86352 24.5469H28.3807V27.2043ZM33.957 21.8896H8.86352V15.9106L15.1369 9.93156L23.7907 18.1793C24.0521 18.4283 24.4065 18.5681 24.7761 18.5681C25.1457 18.5681 25.5001 18.4283 25.7615 18.1793L30.2331 13.9176L33.957 17.4684V21.8896ZM24.1984 7.93855C24.1984 7.54437 24.3211 7.15905 24.5509 6.8313C24.7806 6.50355 25.1072 6.2481 25.4893 6.09725C25.8714 5.94641 26.2919 5.90694 26.6975 5.98384C27.1032 6.06074 27.4758 6.25056 27.7682 6.52928C28.0607 6.80801 28.2598 7.16313 28.3405 7.54973C28.4212 7.93634 28.3798 8.33707 28.2215 8.70124C28.0632 9.06542 27.7952 9.37668 27.4513 9.59568C27.1074 9.81467 26.7031 9.93156 26.2896 9.93156C25.735 9.93156 25.2031 9.72158 24.8109 9.34782C24.4187 8.97406 24.1984 8.46713 24.1984 7.93855Z" fill="#1D2F5D"/>
</svg>
